<svg width="1600" height="500" viewBox="0 0 1600 500" fill="none" xmlns="http://www.w3.org/2000/svg">
  <defs>
    <linearGradient id="bg" x1="0" y1="0" x2="1600" y2="500" gradientUnits="userSpaceOnUse">
      <stop stop-color="#0B1120"/>
      <stop offset="0.5" stop-color="#111827"/>
      <stop offset="1" stop-color="#0F172A"/>
    </linearGradient>
    <linearGradient id="accent" x1="260" y1="80" x2="1000" y2="430" gradientUnits="userSpaceOnUse">
      <stop stop-color="#22D3EE"/>
      <stop offset="1" stop-color="#60A5FA"/>
    </linearGradient>
  </defs>
  <rect width="1600" height="500" fill="url(#bg)"/>
  <circle cx="1280" cy="110" r="180" fill="#1D4ED8" fill-opacity="0.18"/>
  <circle cx="1420" cy="380" r="220" fill="#0EA5E9" fill-opacity="0.12"/>
  <circle cx="230" cy="410" r="270" fill="#22D3EE" fill-opacity="0.08"/>
  <path d="M180 370C250 295 370 250 470 256C550 260 620 303 680 355C760 425 860 455 960 448C1100 438 1220 353 1325 281C1392 232 1465 187 1550 180V500H180V370Z" fill="url(#accent)" fill-opacity="0.18"/>
  <rect x="90" y="90" width="420" height="6" rx="3" fill="#22D3EE" fill-opacity="0.8"/>
  <rect x="90" y="117" width="260" height="6" rx="3" fill="#60A5FA" fill-opacity="0.55"/>
  <text x="90" y="220" fill="#E2E8F0" font-family="Segoe UI, Arial, sans-serif" font-weight="700" font-size="72">LUCAS CARVALHO</text>
  <text x="90" y="285" fill="#7DD3FC" font-family="Segoe UI, Arial, sans-serif" font-weight="600" font-size="36" letter-spacing="2">FULL STACK DEVELOPER</text>
  <text x="90" y="338" fill="#CBD5E1" font-family="Segoe UI, Arial, sans-serif" font-size="24">Analista de Sistemas • PHP • JavaScript • SQL • Automação • Logística</text>
  <g opacity="0.95">
    <rect x="90" y="385" width="168" height="46" rx="23" fill="#0EA5E9"/>
    <text x="132" y="415" fill="#F8FAFC" font-family="Segoe UI, Arial, sans-serif" font-weight="600" font-size="20" text-anchor="middle">LinkedIn</text>
    <rect x="278" y="385" width="182" height="46" rx="23" fill="#1F2937" stroke="#374151"/>
    <text x="369" y="415" fill="#E2E8F0" font-family="Segoe UI, Arial, sans-serif" font-weight="600" font-size="20" text-anchor="middle">GitHub</text>
  </g>
</svg>
